<svg width="24" height="24" viewBox="0 0 24 24" fill="none" xmlns="http://www.w3.org/2000/svg">
<rect x="3" y="3" width="18" height="18" rx="1" fill="#ED3124"/>
<path d="M13.4 14H10.6C10.0399 14 9.75992 14 9.54601 14.109C9.35785 14.2049 9.20487 14.3578 9.10899 14.546C9 14.7599 9 15.0399 9 15.6V19.4C9 19.9601 9 20.2401 9.10899 20.454C9.20487 20.6422 9.35785 20.7951 9.54601 20.891C9.75992 21 10.0399 21 10.6 21H13.4C13.9601 21 14.2401 21 14.454 20.891C14.6422 20.7951 14.7951 20.6422 14.891 20.454C15 20.2401 15 19.9601 15 19.4V15.6C15 15.0399 15 14.7599 14.891 14.546C14.7951 14.3578 14.6422 14.2049 14.454 14.109C14.2401 14 13.9601 14 13.4 14Z" fill="#ED3124" stroke="#333F48" stroke-width="1.5" stroke-linecap="round" stroke-linejoin="round"/>
<path d="M19 7V3.5L21 4V8L20 10H16C15.6 10 14.5 9.66667 14 9.5C18 9.5 19 7.83333 19 7Z" fill="#AA2016"/>
<path d="M15 21V15.6C15 15.0399 15 14.7599 14.891 14.546C14.7951 14.3578 14.6422 14.2049 14.454 14.109C14.2401 14 13.9601 14 13.4 14H10.6C10.0399 14 9.75992 14 9.54601 14.109C9.35785 14.2049 9.20487 14.3578 9.10899 14.546C9 14.7599 9 15.0399 9 15.6V21M3 7C3 8.65685 4.5 10 6 10V10H9C9 10 10.3431 10 12 10C13.6569 10 12 10 14.891 10C18 10 16.3431 10 18 10C19.6569 10 21 8.65685 21 7M6.2 21H17.8C18.9201 21 19.4802 21 19.908 20.782C20.2843 20.5903 20.5903 20.2843 20.782 19.908C21 19.4802 21 18.9201 21 17.8V6.2C21 5.0799 21 4.51984 20.782 4.09202C20.5903 3.71569 20.2843 3.40973 19.908 3.21799C19.4802 3 18.9201 3 17.8 3H6.2C5.0799 3 4.51984 3 4.09202 3.21799C3.71569 3.40973 3.40973 3.71569 3.21799 4.09202C3 4.51984 3 5.07989 3 6.2V17.8C3 18.9201 3 19.4802 3.21799 19.908C3.40973 20.2843 3.71569 20.5903 4.09202 20.782C4.51984 21 5.07989 21 6.2 21Z" stroke="#333F48" stroke-width="1.5" stroke-linecap="round" stroke-linejoin="round"/>
<circle opacity="0.7" cx="0.5" cy="0.5" r="0.5" fill="#333F48"/>
<circle opacity="0.7" cx="2.5" cy="2.5" r="0.5" fill="#333F48"/>
<line x1="2.20728" y1="0.792922" x2="0.793062" y2="2.20714" stroke="#E66A61" stroke-linecap="round"/>
<circle opacity="0.7" cx="22.5" cy="1.5" r="1" stroke="#333F48"/>
<path opacity="0.7" d="M24 1C24 1.55228 23.5523 2 23 2C22.4477 2 22 1.55228 22 1C22 0.447715 22.4477 0 23 0C23.5523 0 24 0.447715 24 1Z" fill="#E66A61"/>
</svg>
