<svg width="25" height="24" viewBox="0 0 25 24" fill="none" xmlns="http://www.w3.org/2000/svg">
<path d="M15.5 21V15.6C15.5 15.0399 15.5 14.7599 15.391 14.546C15.2951 14.3578 15.1422 14.2049 14.954 14.109C14.7401 14 14.4601 14 13.9 14H11.1C10.5399 14 10.2599 14 10.046 14.109C9.85785 14.2049 9.70487 14.3578 9.60899 14.546C9.5 14.7599 9.5 15.0399 9.5 15.6V21M3.5 7C3.5 8.65685 5 10 6.5 10V10H9.5C9.5 10 10.8431 10 12.5 10C14.1569 10 12.5 10 15.391 10C18.5 10 16.8431 10 18.5 10C20.1569 10 21.5 8.65685 21.5 7M6.7 21H18.3C19.4201 21 19.9802 21 20.408 20.782C20.7843 20.5903 21.0903 20.2843 21.282 19.908C21.5 19.4802 21.5 18.9201 21.5 17.8V6.2C21.5 5.0799 21.5 4.51984 21.282 4.09202C21.0903 3.71569 20.7843 3.40973 20.408 3.21799C19.9802 3 19.4201 3 18.3 3H6.7C5.5799 3 5.01984 3 4.59202 3.21799C4.21569 3.40973 3.90973 3.71569 3.71799 4.09202C3.5 4.51984 3.5 5.07989 3.5 6.2V17.8C3.5 18.9201 3.5 19.4802 3.71799 19.908C3.90973 20.2843 4.21569 20.5903 4.59202 20.782C5.01984 21 5.57989 21 6.7 21Z" stroke="#333F48" stroke-width="1.5" stroke-linecap="round" stroke-linejoin="round"/>
</svg>
