<svg width="52" height="39" viewBox="0 0 52 39" fill="none" xmlns="http://www.w3.org/2000/svg">
<mask id="mask0_6017_10159" style="mask-type:luminance" maskUnits="userSpaceOnUse" x="6" y="3" width="45" height="35">
<path d="M50.665 21.5693L42.7921 36.7919C42.63 37.1055 42.3499 37.3418 42.0135 37.4488C41.6771 37.5559 41.312 37.5249 40.9984 37.3627L9.04845 20.8389C8.89276 20.7585 8.75445 20.6483 8.64146 20.5144C8.52846 20.3805 8.44301 20.2257 8.39001 20.0587L6.0878 12.8308C6.03456 12.6639 6.01479 12.4881 6.02962 12.3136C6.04446 12.139 6.09361 11.9691 6.17425 11.8136L9.11646 6.12464C9.19677 5.96894 9.30703 5.83063 9.44091 5.71764C9.57479 5.60465 9.72966 5.5192 9.89663 5.46619L17.1269 3.16525C17.2938 3.11201 17.4696 3.09224 17.6442 3.10707C17.8187 3.12191 17.9886 3.17106 18.1442 3.2517L50.0942 19.7756C50.4077 19.9378 50.644 20.2178 50.7511 20.5542C50.8581 20.8906 50.8271 21.2557 50.665 21.5693Z" fill="white"/>
</mask>
<g mask="url(#mask0_6017_10159)">
<path d="M53.7278 19.8374L11.2891 -2.11108L1.0728 17.6427L43.5116 39.5912L53.7278 19.8374Z" fill="#231F20"/>
<path d="M21.3567 13.5324C21.4059 13.8509 21.3464 14.1768 21.1879 14.4575C21.0882 14.671 20.9343 14.8547 20.7414 14.9902C20.5486 15.1257 20.3236 15.2083 20.0889 15.2296C19.4655 15.2612 18.8466 15.109 18.3089 14.7921L15.4925 13.3355L18.1922 8.11552L20.8596 9.49503C21.4097 9.73563 21.8732 10.1385 22.1882 10.6496C22.2964 10.8423 22.3538 11.0594 22.3549 11.2805C22.356 11.5015 22.3007 11.7192 22.1943 11.9129C22.077 12.1494 21.8941 12.3472 21.6675 12.4825C21.439 12.619 21.1768 12.6883 20.9108 12.6825C21.1404 12.9154 21.2956 13.2112 21.3567 13.5324ZM19.1009 9.93841L18.5829 10.9399L19.5942 11.4629C20.0827 11.7156 20.4263 11.6797 20.6007 11.3426C20.775 11.0055 20.6091 10.7277 20.1083 10.4687L19.1009 9.93841ZM19.791 13.5307C19.9729 13.1789 19.805 12.8692 19.2896 12.6026L18.0536 11.9634L17.5066 13.021L18.7426 13.6603C19.2592 13.9244 19.6091 13.8824 19.7923 13.5282L19.791 13.5307Z" fill="white"/>
<path d="M23.9202 11.0779L25.3858 11.8359L23.295 15.8785L25.7914 17.1695L25.1825 18.3469L21.2205 16.2978L23.9202 11.0779Z" fill="white"/>
<path d="M32.8566 22.0062C32.5447 21.562 32.3635 21.0393 32.3336 20.4973C32.3004 19.9442 32.4216 19.3927 32.6837 18.9044C32.9302 18.4111 33.3089 17.996 33.7775 17.7054C34.2345 17.421 34.7618 17.2702 35.3 17.2698C35.874 17.2681 36.4393 17.4094 36.945 17.681C37.3914 17.8997 37.787 18.2097 38.106 18.591C38.3959 18.9463 38.5938 19.3677 38.682 19.8177L37.302 20.1814C37.257 19.9185 37.1519 19.6696 36.9948 19.4541C36.8378 19.2386 36.633 19.0623 36.3965 18.9391C36.1356 18.7978 35.8423 18.7272 35.5457 18.7344C35.2644 18.7425 34.9917 18.8329 34.7611 18.9942C34.5115 19.1697 34.3099 19.405 34.1749 19.6787C34.0296 19.9461 33.9545 20.2459 33.9564 20.5502C33.956 20.8319 34.04 21.1073 34.1978 21.3407C34.3627 21.5875 34.5894 21.787 34.8553 21.9191C35.0927 22.0403 35.3549 22.1052 35.6214 22.1088C35.8879 22.1125 36.1518 22.0547 36.3924 21.9401L36.8945 23.2741C36.4761 23.462 36.018 23.544 35.5604 23.5129C35.0649 23.473 34.5833 23.3294 34.1468 23.0914C33.6345 22.8407 33.1915 22.4681 32.8566 22.0062Z" fill="white"/>
<path d="M40.0911 23.6486L39.2346 23.9518L38.5562 25.2635L37.0906 24.5055L39.7903 19.2855L41.2559 20.0435L40.1353 22.2101L43.276 21.0882L44.9052 21.9309L41.5814 23.1376L42.3106 27.2051L40.6007 26.3208L40.0911 23.6486Z" fill="white"/>
<path d="M17.7569 16.1289L16.1639 19.2091L15.4457 18.8377L14.9365 16.4938L14.0876 18.1353L13.2327 17.6931L14.8257 14.6129L15.5438 14.9843L16.048 17.338L16.9019 15.6867L17.7569 16.1289Z" fill="white"/>
<path d="M17.5124 19.7206C17.3771 19.5206 17.2836 19.2954 17.2373 19.0584C17.1909 18.8215 17.1928 18.5776 17.2427 18.3414C17.2927 18.1052 17.3897 17.8814 17.5279 17.6835C17.6662 17.4855 17.8429 17.3175 18.0475 17.1893C18.321 17.0226 18.6347 16.9334 18.955 16.9311C19.2979 16.9373 19.6347 17.0224 19.9393 17.18C20.2439 17.3375 20.5081 17.5632 20.7113 17.8394C20.8472 18.0395 20.9413 18.2649 20.988 18.5022C21.0348 18.7395 21.0332 18.9838 20.9833 19.2204C20.9335 19.4571 20.8364 19.6813 20.6979 19.8795C20.5594 20.0778 20.3824 20.2461 20.1773 20.3744C19.9021 20.5417 19.5858 20.6289 19.2637 20.6264C18.9204 20.6225 18.5828 20.5384 18.2778 20.3806C17.9728 20.2229 17.709 19.996 17.5075 19.7181L17.5124 19.7206ZM19.1364 19.7711C19.3005 19.7614 19.459 19.7074 19.5949 19.615C19.741 19.5096 19.8603 19.3714 19.943 19.2114C20.0258 19.0514 20.0697 18.8742 20.0711 18.6941C20.0681 18.5297 20.0205 18.3693 19.9336 18.2297C19.8417 18.0908 19.7158 17.9778 19.5678 17.9012C19.4199 17.8247 19.2549 17.7874 19.0884 17.7926C18.9235 17.8009 18.764 17.8545 18.6275 17.9475C18.4814 18.0528 18.3621 18.191 18.2794 18.351C18.1966 18.511 18.1527 18.6882 18.1513 18.8684C18.1543 19.0335 18.2027 19.1946 18.2913 19.334C18.3832 19.4729 18.5091 19.5859 18.657 19.6624C18.8049 19.7389 18.97 19.7763 19.1364 19.7711Z" fill="white"/>
<path d="M25.1141 19.9338L22.202 22.3318L21.3422 21.8872L21.6211 18.1273L22.5615 18.6137L22.3597 21.0512L24.2518 19.4879L25.1141 19.9338Z" fill="white"/>
<path d="M26.5225 23.7118L26.1739 24.386L23.7019 23.1075L25.2949 20.0273L27.7107 21.2767L27.362 21.9509L25.8061 21.1462L25.5383 21.664L26.9061 22.3715L26.5688 23.0237L25.201 22.3162L24.9104 22.878L26.5225 23.7118Z" fill="white"/>
<path d="M29.447 26.0788L30.2909 24.4471L28.8122 25.3666L28.4067 25.1569L28.2847 23.4653L27.4636 25.053L26.6575 24.6361L28.2505 21.5559L28.9686 21.9273L29.1433 24.2715L31.1182 23.039L31.8363 23.4104L30.2433 26.4906L29.447 26.0788Z" fill="white"/>
<path d="M34.3184 26.9263C34.3501 27.1157 34.3171 27.3102 34.2248 27.4785C34.1666 27.6078 34.0751 27.7192 33.9596 27.8015C33.8442 27.8838 33.7089 27.9339 33.5678 27.9468C33.1979 27.9632 32.8313 27.8705 32.5137 27.6803L30.8502 26.8199L32.4495 23.7275L34.025 24.5424C34.3494 24.6846 34.6228 24.9221 34.8091 25.2234C34.8729 25.3376 34.9066 25.4661 34.9072 25.5969C34.9078 25.7277 34.8752 25.8565 34.8124 25.9712C34.7428 26.1109 34.635 26.228 34.5015 26.3089C34.3666 26.3892 34.2116 26.4293 34.0547 26.4246C34.19 26.5623 34.2818 26.7368 34.3184 26.9263ZM32.9859 24.8037L32.6789 25.3973L33.2773 25.7068C33.5704 25.8584 33.7688 25.834 33.8724 25.6337C33.976 25.4334 33.88 25.2599 33.5843 25.1132L32.9859 24.8037ZM33.3923 26.9272C33.4997 26.7196 33.4013 26.5387 33.0959 26.3808L32.3631 26.0018L32.041 26.6247L32.7738 27.0036C33.0804 27.1591 33.2849 27.1348 33.3923 26.9272Z" fill="white"/>
<path d="M37.0626 29.1629L36.7139 29.8371L34.2395 28.5574L35.8325 25.4772L38.2483 26.7266L37.8996 27.4007L36.3461 26.5973L36.0783 27.1151L37.4462 27.8226L37.1089 28.4748L35.741 27.7673L35.4504 28.3291L37.0626 29.1629Z" fill="white"/>
<path d="M38.9668 29.9651L38.4782 29.7124L38.055 30.5307L37.1855 30.081L38.7785 27.0008L40.1854 27.7284C40.4405 27.8516 40.6659 28.0283 40.8462 28.2467C40.9969 28.43 41.0912 28.653 41.1179 28.8887C41.1386 29.1288 41.0874 29.3696 40.9707 29.5804C40.8731 29.7885 40.7158 29.963 40.5188 30.0816C40.3219 30.2002 40.0941 30.2577 39.8645 30.2467L40.0236 31.5674L39.0905 31.0848L38.9668 29.9651ZM40.1376 28.713C40.0681 28.5653 39.9467 28.4485 39.7964 28.3848L39.3079 28.1322L38.8417 29.0335L39.3303 29.2862C39.4687 29.3705 39.6323 29.4037 39.7927 29.3798C39.9264 29.3365 40.0377 29.2422 40.1023 29.1173C40.1668 28.9925 40.1795 28.8471 40.1376 28.713Z" fill="white"/>
<path d="M32.0188 15.2633L30.5678 14.5129L25.5697 18.538L27.0719 19.3149L29.0011 17.65L29.5263 17.1972L30.5357 16.3291L30.4065 17.6803L30.4053 17.6827L30.3421 18.3436L30.1359 20.4784L30.096 20.8788L31.6324 21.6735L32.0188 15.2633Z" fill="white"/>
<path d="M30.9518 18.0149L28.8438 16.9247L28.2727 18.0288L30.3808 19.119L30.9518 18.0149Z" fill="white"/>
</g>
<path d="M7.35931 10.2653C7.00087 9.8334 6.72928 9.30759 6.7296 8.77481C6.73581 7.83053 7.77217 7.10488 8.72548 7.38194" stroke="#DA291C" stroke-width="0.3" stroke-miterlimit="10"/>
<path d="M5.19634 7.51454C4.036 7.34305 2.86572 7.46066 1.87757 7.98977C1.29236 8.30295 0.39364 8.86198 0.463746 9.63487C0.499582 10.0252 0.7477 10.4091 1.09987 10.62C1.20939 10.6853 1.33157 10.7359 1.45519 10.7398C1.84971 10.7524 2.37927 10.4889 2.65131 10.2639C3.42729 9.62075 4.16389 8.88677 5.14061 8.53774C5.82896 8.29186 6.6501 8.23051 7.33992 8.60359C7.8305 8.86945 9.06881 9.64882 9.4738 9.74084C9.83347 9.82272 7.54172 8.24574 7.30128 8.13724C6.63389 7.83786 5.91697 7.62072 5.19754 7.5145L5.19634 7.51454Z" stroke="#DA291C" stroke-width="0.3" stroke-miterlimit="10"/>
</svg>
