<svg width="25" height="24" viewBox="0 0 25 24" fill="none" xmlns="http://www.w3.org/2000/svg">
<path d="M5.8163 19.4384C6.42462 18.0052 7.84492 17 9.5 17H15.5C17.1551 17 18.5754 18.0052 19.1837 19.4384M16.5 9.5C16.5 11.7091 14.7091 13.5 12.5 13.5C10.2909 13.5 8.5 11.7091 8.5 9.5C8.5 7.29086 10.2909 5.5 12.5 5.5C14.7091 5.5 16.5 7.29086 16.5 9.5ZM22.5 12C22.5 17.5228 18.0228 22 12.5 22C6.97715 22 2.5 17.5228 2.5 12C2.5 6.47715 6.97715 2 12.5 2C18.0228 2 22.5 6.47715 22.5 12Z" stroke="#333F48" stroke-width="1.5" stroke-linecap="round" stroke-linejoin="round"/>
</svg>
